<?xml version="1.0" encoding="UTF-8"?>
<svg version="1.1" viewBox="0 0 2000 2000" width="1280" height="1280" xmlns="http://www.w3.org/2000/svg">
<path transform="translate(0)" d="m0 0h2e3v2e3h-2e3z" fill="#113A4E"/>
<path transform="translate(1431,82)" d="m0 0 5 5 8 11 11 17 58 87 15 22 10 15 11 17 26 40 12 17 38 57 11 16 11 17 11 16 12 17 10 15 17 26 9 16 12 27 7 21 7 26 9 39 7 32 3 23v11l-1 12-1 28-1 8-10 1-78-4-371-20-122-7-136-7-11-1-2-1-1-8 2-8 5-9 11-14 13-15 23-23 11-9 17-13 18-12 18-10 16-8 29-12 25-8 11-4 6-1 9 1 82 3h7l-1-3-19-7-47-16-50-15-42-10-40-8-39-6-52-6-56-4-28-1h-43l-51 2-61 5-39 5-29 5-43 9-38 9-44 13-36 12-25 9-29 12-29 13-35 17-20 11-12 6-24 14-19 12-28 19-19 14-18 14-13 10-10 9-11 9-34 32-18 18-7 8-9 10-12 13-10 9-11 7-19 8-18 4h-22l-20-4-2-4 13-41 13-32 12-25 11-21 15-24 11-16 12-16 11-13 9-11 16-17 24-24 11-9 13-12 14-11 13-10 18-13 33-22 26-17 28-17 28-16 46-25 20-10 19-10 33-16 14-6 14-7 25-11 27-11 28-11 36-13 40-13 44-13 32-8 28-3 14-1 28-1 65-1 54 1 45 3 57 6 41 6 50 9 46 10 51 13 40 12 36 12 24 9 17 6 27 11 6 3h4l-1-6-40-60-10-17-2-20v-33l3-30 4-22 6-20 11-25 6-12 10-15 9-11z" fill="#F89422"/>
<path transform="translate(1383,741)" d="m0 0h81l37 2 4 1 21 2 25 5 21 6 27 10 20 10 13 8 11 8 10 8 16 16 13 17 9 15 8 18 5 15 3 12 4 30-1 16-3 24-5 21-7 19-10 19-9 12-9 11-14 14-13 10-17 11-22 12-23 10-18 7-26 8-44 11h-3v2l9 3 23 13 18 12 14 11 14 12 11 10 8 7 13 13 7 8 11 12 18 22 8 10 14 19 15 23 12 19 10 17 14 29 6 15 3 11v13l-6 14-8 10-10 9-14 8-10 4-9 3-21 2h-22l-15-2-18-8-11-7-13-11-10-11-11-14-12-16-12-17-10-14-12-17-14-20-13-18-11-15-24-34-9-12-11-14-9-10-9-11-15-15-11-9-15-11-16-9-18-7-15-4-20-3-12-1h-91l-1 90-2 86-2 59-2 20-5 17-7 13-9 10-9 8-12 7-16 6-16 3h-26l-16-3-16-6-11-7-10-10-7-11-5-12-3-9-1-7-1-34v-23l3-139 3-132 1-68 1-23 3-128 1-32 3-19 5-15 7-12 9-10 12-9 17-7 16-4 23-3 125-2 28-1z" fill="#FDFDFD"/>
<path transform="translate(327,1485)" d="m0 0h10l20 4 13 5 12 6 13 10 10 9 8 7 13 11 16 13 19 14 18 13 23 15 18 11 15 9 12 7 11 6 19 10 23 11 36 16 34 13 30 10 41 12 32 8 35 7 44 7 35 4 31 2 31 1h33l35-1 43-3 38-5 38-7 36-8 37-10 40-13 32-12 31-13 30-14 22-12 16-9 23-14 17-11 16-11 11-8 16-12 16-13 11-9 12-10 14-9 16-7 12-3h28l16 4 16 8 11 7 11 9 10 13 8 16 5 15 3 18-1 15-4 16-5 12-7 12-9 10-7 8-14 13-14 11-16 13-16 12-18 13-24 16-17 11-20 12-24 14-23 12-32 16-28 13-38 15-36 13-41 13-29 8-37 9-40 8-38 6-41 5-44 4-22 1-39 1-56-2-28-2-48-5-35-5-40-7-42-9-43-11-42-13-37-13-33-13-21-9-33-15-16-8-32-17-23-13-22-13-25-16-12-8-17-12-19-14-12-9-13-10-13-11-11-9-10-9-8-7-13-12-10-14-8-16-5-17-1-4v-24l4-17 7-16 8-11 9-10 7-7 10-7 14-7 19-5z" fill="#F89422"/>
<path transform="translate(523,733)" d="m0 0h33l25 1 39 4 30 5 25 6 21 6 33 12 27 12 25 13 19 12 14 10 16 13 8 7 18 18 13 17 10 14 12 23 5 15 3 15v22l-4 12-7 12-8 9-13 9-13 6-11 3-8 1h-18l-16-2-16-6-10-7-9-8-9-11-10-13-11-17-10-14-9-11-14-15-15-14-14-10-10-7-26-13-21-7-18-4-16-3-30-2h-17l-29 2-29 5-24 7-16 6-16 8-14 8-12 9-10 8-12 11-12 12-12 16-10 16-10 19-10 26-7 27-5 26-3 32-1 22v16l3 38 5 28 4 17 8 24 10 22 12 20 12 16 12 13 11 10 17 12 18 10 15 7 23 8 20 5 22 4 24 2h27l28-2 31-6 24-7 19-8 16-8 16-10 14-12 10-9 10-11 10-13 11-18 15-31 7-14 10-14 11-11 16-8 7-2 16-2h15l18 3 13 5 11 6 11 9 8 10 5 11 2 10v19l-3 17-6 21-9 20-9 17-11 16-11 13-10 11-7 8-7 7-11 9-10 9-14 10-19 12-18 10-21 10-25 10-28 9-25 6-21 4-19 3-33 3-13 1h-57l-53-4-19-3-17-2-2-2-18-2-4-4-7 1-7-2-4-2-12-3-25-9-21-9-28-14-22-14-14-11-13-11-11-9-14-14-9-11-10-11-14-19-12-19-10-18-11-23-8-21-7-21-6-24-5-29-3-25-1-16v-36l4-38 4-25 8-32 9-26 11-24 12-23 18-27 10-13 18-20 12-12 8-7 11-10 17-13 16-11 13-8 22-12 19-9 27-11 28-9 22-6 27-6 31-5 31-3z" fill="#FDFDFD"/>
<path transform="translate(1355,847)" d="m0 0h23l53 3 19 2 19 5 15 6 14 8 10 8 10 10 10 16 5 12 2 15v20l-2 14-5 15-6 11-11 13-11 9-15 9-16 7-17 5-10 3-24 4-39 4-22 1-124 2h-52v-69l1-50 2-61 1-18 6-1 49-1 80-1z" fill="#113A4E"/>
</svg>
