<?xml version="1.0" encoding="UTF-8"?>
<!DOCTYPE svg PUBLIC "-//W3C//DTD SVG 1.1//EN" "http://www.w3.org/Graphics/SVG/1.1/DTD/svg11.dtd">
<svg xmlns="http://www.w3.org/2000/svg" version="1.1" width="920px" height="1080px" style="shape-rendering:geometricPrecision; text-rendering:geometricPrecision; image-rendering:optimizeQuality; fill-rule:evenodd; clip-rule:evenodd" xmlns:xlink="http://www.w3.org/1999/xlink">
<g><path style="opacity:1" fill="#13394f" d="M -0.5,-0.5 C 306.167,-0.5 612.833,-0.5 919.5,-0.5C 919.5,359.5 919.5,719.5 919.5,1079.5C 612.833,1079.5 306.167,1079.5 -0.5,1079.5C -0.5,719.5 -0.5,359.5 -0.5,-0.5 Z"/></g>
<g><path style="opacity:1" fill="#b08438" d="M 147.5,132.5 C 151.578,134.212 155.578,135.879 159.5,137.5C 154.477,137.93 150.477,136.263 147.5,132.5 Z"/></g>
<g><path style="opacity:1" fill="#7f6438" d="M 159.5,137.5 C 160.833,137.5 162.167,137.5 163.5,137.5C 164.5,138.167 165.5,138.833 166.5,139.5C 163.848,139.59 161.515,138.924 159.5,137.5 Z"/></g>
<g><path style="opacity:1" fill="#363e32" d="M 163.5,137.5 C 167.96,137.875 171.96,139.209 175.5,141.5C 172.303,141.595 169.303,140.928 166.5,139.5C 165.5,138.833 164.5,138.167 163.5,137.5 Z"/></g>
<g><path style="opacity:1" fill="#e5921e" d="M 142.5,131.5 C 143.919,132.451 145.585,132.784 147.5,132.5C 150.477,136.263 154.477,137.93 159.5,137.5C 161.515,138.924 163.848,139.59 166.5,139.5C 169.303,140.928 172.303,141.595 175.5,141.5C 180.733,143.777 186.066,146.11 191.5,148.5C 193.515,149.924 195.848,150.59 198.5,150.5C 207.358,153.963 216.358,156.963 225.5,159.5C 227.617,161.655 230.284,162.655 233.5,162.5C 235.102,164.074 237.102,164.741 239.5,164.5C 244.822,166.498 250.155,168.498 255.5,170.5C 259.459,172.973 263.793,174.64 268.5,175.5C 269.5,175.5 270.5,175.5 271.5,175.5C 273.513,177.365 275.846,179.032 278.5,180.5C 281.428,181.484 284.428,181.817 287.5,181.5C 293.137,182.998 298.47,184.998 303.5,187.5C 305.515,188.924 307.848,189.59 310.5,189.5C 318.783,192.816 327.117,195.816 335.5,198.5C 338.408,200.605 341.742,201.605 345.5,201.5C 348.105,201.621 350.105,202.621 351.5,204.5C 354.443,205.367 357.443,206.367 360.5,207.5C 363.388,206.99 365.721,207.656 367.5,209.5C 370.505,211.277 373.838,212.277 377.5,212.5C 379.102,214.074 381.102,214.741 383.5,214.5C 388.382,217.464 393.715,219.464 399.5,220.5C 404.777,222.127 410.11,223.793 415.5,225.5C 420.382,228.464 425.715,230.464 431.5,231.5C 433.565,231.517 435.565,231.85 437.5,232.5C 440.34,234.915 443.673,236.248 447.5,236.5C 447.5,236.833 447.5,237.167 447.5,237.5C 449.515,238.924 451.848,239.59 454.5,239.5C 454.833,239.5 455.167,239.5 455.5,239.5C 457.503,241.982 460.169,242.982 463.5,242.5C 465.167,243.167 466.833,243.833 468.5,244.5C 471.6,247.21 475.267,248.543 479.5,248.5C 480.919,249.451 482.585,249.784 484.5,249.5C 487.369,252.758 491.036,254.091 495.5,253.5C 498.025,254.64 500.692,255.307 503.5,255.5C 503.577,256.75 504.244,257.583 505.5,258C 507.473,258.495 509.473,258.662 511.5,258.5C 511.5,258.833 511.5,259.167 511.5,259.5C 514.408,261.605 517.742,262.605 521.5,262.5C 525.278,263.557 528.945,264.891 532.5,266.5C 535.553,268.968 539.22,270.301 543.5,270.5C 544.919,271.451 546.585,271.784 548.5,271.5C 551.491,274.389 555.158,275.722 559.5,275.5C 559.5,275.833 559.5,276.167 559.5,276.5C 564.222,279.688 569.556,281.355 575.5,281.5C 580.757,283.159 586.09,284.826 591.5,286.5C 592.209,287.404 593.209,287.737 594.5,287.5C 595.343,289.173 596.676,290.34 598.5,291C 601.478,291.696 604.478,292.196 607.5,292.5C 611.063,295.024 615.063,296.691 619.5,297.5C 623.897,298.301 628.231,299.301 632.5,300.5C 634.176,302.834 636.509,303.834 639.5,303.5C 641.921,303.878 644.254,304.545 646.5,305.5C 649.145,307.31 652.145,308.31 655.5,308.5C 660.573,311.03 665.906,313.03 671.5,314.5C 671.842,315.338 672.508,315.672 673.5,315.5C 676.309,317.897 679.642,319.23 683.5,319.5C 684.833,319.5 686.167,319.5 687.5,319.5C 689.09,321.821 691.423,322.821 694.5,322.5C 694.833,322.5 695.167,322.5 695.5,322.5C 697.617,324.655 700.284,325.655 703.5,325.5C 706.8,327.642 710.467,328.975 714.5,329.5C 716.403,329.796 718.07,330.463 719.5,331.5C 721.515,332.924 723.848,333.59 726.5,333.5C 728.05,334.441 729.716,335.107 731.5,335.5C 731.5,336.5 731.5,337.5 731.5,338.5C 736.964,338.904 742.297,339.904 747.5,341.5C 754.003,343.551 760.669,345.218 767.5,346.5C 767.5,347.5 767.5,348.5 767.5,349.5C 769.857,349.337 772.19,349.503 774.5,350C 777.818,350.754 780.818,351.92 783.5,353.5C 788.757,355.159 794.09,356.826 799.5,358.5C 800.93,359.537 802.597,360.204 804.5,360.5C 805.483,361.85 806.816,362.85 808.5,363.5C 805.832,364.738 803.166,364.738 800.5,363.5C 800.167,363.833 799.833,364.167 799.5,364.5C 800.612,365.265 801.279,366.265 801.5,367.5C 800.508,367.328 799.842,367.662 799.5,368.5C 794.072,370.176 788.738,371.842 783.5,373.5C 782.791,374.404 781.791,374.737 780.5,374.5C 775.548,374.84 771.215,376.507 767.5,379.5C 763.292,379.677 759.626,381.01 756.5,383.5C 756.167,383.5 755.833,383.5 755.5,383.5C 748.381,384.735 741.715,387.068 735.5,390.5C 730.804,390.671 726.137,391.171 721.5,392C 720.027,392.71 719.36,393.876 719.5,395.5C 716.596,396.285 713.93,397.619 711.5,399.5C 708.505,399.294 705.838,399.96 703.5,401.5C 700.284,401.345 697.617,402.345 695.5,404.5C 692.557,404.98 689.89,405.98 687.5,407.5C 685.901,407.232 684.568,407.566 683.5,408.5C 679.085,408.861 675.085,410.194 671.5,412.5C 669.249,413.015 667.249,414.015 665.5,415.5C 656.567,417.591 647.9,420.258 639.5,423.5C 633.891,424.98 628.557,426.98 623.5,429.5C 620.67,429.694 618.004,430.361 615.5,431.5C 612.422,431.62 609.755,432.62 607.5,434.5C 607.5,434.833 607.5,435.167 607.5,435.5C 601.7,435.991 596.367,437.657 591.5,440.5C 586.095,442.192 580.762,443.859 575.5,445.5C 573.721,447.344 571.388,448.01 568.5,447.5C 565.294,448.079 562.294,449.079 559.5,450.5C 559.5,451.167 559.5,451.833 559.5,452.5C 556.432,452.547 553.432,453.047 550.5,454C 549.058,454.377 548.058,455.21 547.5,456.5C 544.37,456.7 541.37,457.366 538.5,458.5C 534.093,458.875 530.426,460.542 527.5,463.5C 526.167,463.5 524.833,463.5 523.5,463.5C 519.562,465.035 515.562,466.368 511.5,467.5C 507.393,467.518 503.393,468.185 499.5,469.5C 498.873,470.417 498.539,471.417 498.5,472.5C 496.821,472.285 495.821,472.952 495.5,474.5C 492.99,474.054 490.99,474.72 489.5,476.5C 487.152,476.67 484.818,477.003 482.5,477.5C 480.97,477.64 479.97,478.307 479.5,479.5C 477.801,479.34 476.134,479.506 474.5,480C 471.021,482.209 467.354,483.709 463.5,484.5C 459.306,484.55 455.306,485.383 451.5,487C 449.681,487.74 448.348,488.907 447.5,490.5C 445.901,490.232 444.568,490.566 443.5,491.5C 439.525,491.486 436.192,492.819 433.5,495.5C 432.833,495.5 432.167,495.5 431.5,495.5C 425.871,496.929 420.537,498.929 415.5,501.5C 413.698,502.458 411.698,503.125 409.5,503.5C 406.668,504.1 403.835,504.767 401,505.5C 399.97,505.836 399.47,506.503 399.5,507.5C 393.928,508.819 388.595,510.486 383.5,512.5C 372.342,514.95 361.675,518.617 351.5,523.5C 347.639,524.1 343.973,525.434 340.5,527.5C 338.585,527.216 336.919,527.549 335.5,528.5C 329.715,529.536 324.382,531.536 319.5,534.5C 316.169,534.018 313.503,535.018 311.5,537.5C 308.505,537.294 305.838,537.96 303.5,539.5C 303.5,539.833 303.5,540.167 303.5,540.5C 300.224,540.144 297.557,541.144 295.5,543.5C 292.458,543.733 289.792,544.733 287.5,546.5C 284.918,546.025 282.918,546.692 281.5,548.5C 277.786,548.59 274.452,549.59 271.5,551.5C 268.121,551.515 265.121,552.515 262.5,554.5C 259.848,554.41 257.515,555.076 255.5,556.5C 252.706,557.921 249.706,558.921 246.5,559.5C 243.982,560.264 241.649,561.264 239.5,562.5C 233.888,563.924 228.555,565.924 223.5,568.5C 216.785,569.33 210.785,571.663 205.5,575.5C 202.813,575.336 200.146,575.503 197.5,576C 195.111,576.739 193.111,577.905 191.5,579.5C 185.73,579.98 180.397,581.647 175.5,584.5C 175.5,584.833 175.5,585.167 175.5,585.5C 169.709,585.987 164.376,587.654 159.5,590.5C 155.73,590.998 152.063,591.998 148.5,593.5C 146.833,593.5 145.167,593.5 143.5,593.5C 144.263,592.732 145.263,592.232 146.5,592C 145.207,591.51 143.873,591.343 142.5,591.5C 142.17,439.479 142.503,287.479 143.5,135.5C 143.167,134.833 142.833,134.167 142.5,133.5C 141.833,136.977 141.166,140.311 140.5,143.5C 139.911,139.029 140.577,135.029 142.5,131.5 Z"/></g>
<g><path style="opacity:1" fill="#bb8d3d" d="M 139.5,130.5 C 140.791,130.263 141.791,130.596 142.5,131.5C 140.577,135.029 139.911,139.029 140.5,143.5C 140.5,293.833 140.5,444.167 140.5,594.5C 141.791,594.737 142.791,594.404 143.5,593.5C 145.167,593.5 146.833,593.5 148.5,593.5C 145.855,595.31 142.855,596.31 139.5,596.5C 139.5,441.167 139.5,285.833 139.5,130.5 Z"/></g>
<g><path style="opacity:1" fill="#123a4d" d="M 132.5,134.5 C 132.971,136.288 133.304,138.122 133.5,140C 132.824,293.83 132.157,447.663 131.5,601.5C 130.5,601.5 129.5,601.5 128.5,601.5C 129.326,448.85 129.826,296.184 130,143.5C 129.93,140.008 130.763,137.008 132.5,134.5 Z"/></g>
<g><path style="opacity:1" fill="#11375a" d="M 134.5,591.5 C 134.119,595.119 133.119,598.452 131.5,601.5C 132.157,447.663 132.824,293.83 133.5,140C 133.304,138.122 132.971,136.288 132.5,134.5C 132.192,132.076 132.526,129.743 133.5,127.5C 134.5,282.165 134.833,436.832 134.5,591.5 Z"/></g>
<g><path style="opacity:1" fill="#103645" d="M 136.5,591.5 C 136.5,593.167 136.5,594.833 136.5,596.5C 135.883,596.611 135.383,596.944 135,597.5C 134.505,595.527 134.338,593.527 134.5,591.5C 135.333,437.001 135.833,282.334 136,127.5C 136.5,282.166 136.667,436.833 136.5,591.5 Z"/></g>
<g><path style="opacity:1" fill="#1a3650" d="M 139.5,130.5 C 139.5,285.833 139.5,441.167 139.5,596.5C 139.5,597.833 139.5,599.167 139.5,600.5C 138.5,600.5 137.5,600.5 136.5,600.5C 136.5,599.167 136.5,597.833 136.5,596.5C 136.5,594.833 136.5,593.167 136.5,591.5C 137.167,436.999 137.833,282.333 138.5,127.5C 139.386,128.325 139.719,129.325 139.5,130.5 Z"/></g>
<g><path style="opacity:1" fill="#ef910c" d="M 143.5,593.5 C 142.791,594.404 141.791,594.737 140.5,594.5C 140.5,444.167 140.5,293.833 140.5,143.5C 141.166,140.311 141.833,136.977 142.5,133.5C 142.833,134.167 143.167,134.833 143.5,135.5C 142.503,287.479 142.17,439.479 142.5,591.5C 143.873,591.343 145.207,591.51 146.5,592C 145.263,592.232 144.263,592.732 143.5,593.5 Z"/></g>
<g><path style="opacity:1" fill="#776038" d="M 191.5,148.5 C 194.152,148.41 196.485,149.076 198.5,150.5C 195.848,150.59 193.515,149.924 191.5,148.5 Z"/></g>
<g><path style="opacity:1" fill="#5b522e" d="M 225.5,159.5 C 228.578,159.62 231.245,160.62 233.5,162.5C 230.284,162.655 227.617,161.655 225.5,159.5 Z"/></g>
<g><path style="opacity:1" fill="#50512b" d="M 233.5,162.5 C 236.082,162.025 238.082,162.692 239.5,164.5C 237.102,164.741 235.102,164.074 233.5,162.5 Z"/></g>
<g><path style="opacity:1" fill="#987641" d="M 255.5,170.5 C 257.199,170.34 258.866,170.506 260.5,171C 263.286,172.501 265.953,174.001 268.5,175.5C 263.793,174.64 259.459,172.973 255.5,170.5 Z"/></g>
<g><path style="opacity:1" fill="#b38235" d="M 271.5,175.5 C 276.682,178.045 282.016,180.045 287.5,181.5C 284.428,181.817 281.428,181.484 278.5,180.5C 275.846,179.032 273.513,177.365 271.5,175.5 Z"/></g>
<g><path style="opacity:1" fill="#725a32" d="M 303.5,187.5 C 305.527,187.338 307.527,187.505 309.5,188C 310.056,188.383 310.389,188.883 310.5,189.5C 307.848,189.59 305.515,188.924 303.5,187.5 Z"/></g>
<g><path style="opacity:1" fill="#86693b" d="M 335.5,198.5 C 339.162,198.723 342.495,199.723 345.5,201.5C 341.742,201.605 338.408,200.605 335.5,198.5 Z"/></g>
<g><path style="opacity:1" fill="#87713c" d="M 351.5,204.5 C 355.155,203.925 358.155,204.925 360.5,207.5C 357.443,206.367 354.443,205.367 351.5,204.5 Z"/></g>
<g><path style="opacity:1" fill="#765c31" d="M 367.5,209.5 C 371.258,209.395 374.592,210.395 377.5,212.5C 373.838,212.277 370.505,211.277 367.5,209.5 Z"/></g>
<g><path style="opacity:1" fill="#665830" d="M 377.5,212.5 C 379.898,212.259 381.898,212.926 383.5,214.5C 381.102,214.741 379.102,214.074 377.5,212.5 Z"/></g>
<g><path style="opacity:1" fill="#786133" d="M 383.5,214.5 C 385.927,214.523 388.26,215.023 390.5,216C 393.613,217.417 396.613,218.917 399.5,220.5C 393.715,219.464 388.382,217.464 383.5,214.5 Z"/></g>
<g><path style="opacity:1" fill="#585230" d="M 415.5,225.5 C 421.296,226.403 426.629,228.403 431.5,231.5C 425.715,230.464 420.382,228.464 415.5,225.5 Z"/></g>
<g><path style="opacity:1" fill="#404431" d="M 437.5,232.5 C 441.327,232.752 444.66,234.085 447.5,236.5C 443.673,236.248 440.34,234.915 437.5,232.5 Z"/></g>
<g><path style="opacity:1" fill="#75623e" d="M 447.5,237.5 C 449.527,237.338 451.527,237.505 453.5,238C 454.056,238.383 454.389,238.883 454.5,239.5C 451.848,239.59 449.515,238.924 447.5,237.5 Z"/></g>
<g><path style="opacity:1" fill="#7d6532" d="M 455.5,239.5 C 458.578,239.62 461.245,240.62 463.5,242.5C 460.169,242.982 457.503,241.982 455.5,239.5 Z"/></g>
<g><path style="opacity:1" fill="#ad8946" d="M 468.5,244.5 C 472.537,245.065 476.203,246.399 479.5,248.5C 475.267,248.543 471.6,247.21 468.5,244.5 Z"/></g>
<g><path style="opacity:1" fill="#97763d" d="M 484.5,249.5 C 488.352,250.605 492.018,251.938 495.5,253.5C 491.036,254.091 487.369,252.758 484.5,249.5 Z"/></g>
<g><path style="opacity:1" fill="#735e31" d="M 503.5,255.5 C 506.257,256.512 508.924,257.512 511.5,258.5C 509.473,258.662 507.473,258.495 505.5,258C 504.244,257.583 503.577,256.75 503.5,255.5 Z"/></g>
<g><path style="opacity:1" fill="#886c37" d="M 511.5,259.5 C 515.162,259.723 518.495,260.723 521.5,262.5C 517.742,262.605 514.408,261.605 511.5,259.5 Z"/></g>
<g><path style="opacity:1" fill="#a88040" d="M 532.5,266.5 C 536.395,267.462 540.061,268.796 543.5,270.5C 539.22,270.301 535.553,268.968 532.5,266.5 Z"/></g>
<g><path style="opacity:1" fill="#7b6534" d="M 548.5,271.5 C 552.296,272.569 555.963,273.902 559.5,275.5C 555.158,275.722 551.491,274.389 548.5,271.5 Z"/></g>
<g><path style="opacity:1" fill="#a97d35" d="M 559.5,276.5 C 565.255,277.056 570.588,278.723 575.5,281.5C 569.556,281.355 564.222,279.688 559.5,276.5 Z"/></g>
<g><path style="opacity:1" fill="#4e4b31" d="M 575.5,281.5 C 581.502,281.201 586.836,282.867 591.5,286.5C 586.09,284.826 580.757,283.159 575.5,281.5 Z"/></g>
<g><path style="opacity:1" fill="#9b7b39" d="M 594.5,287.5 C 599.218,288.418 603.551,290.085 607.5,292.5C 604.478,292.196 601.478,291.696 598.5,291C 596.676,290.34 595.343,289.173 594.5,287.5 Z"/></g>
<g><path style="opacity:1" fill="#9d7f41" d="M 607.5,292.5 C 612.267,292.636 616.267,294.303 619.5,297.5C 615.063,296.691 611.063,295.024 607.5,292.5 Z"/></g>
<g><path style="opacity:1" fill="#736a36" d="M 632.5,300.5 C 635.157,300.935 637.491,301.935 639.5,303.5C 636.509,303.834 634.176,302.834 632.5,300.5 Z"/></g>
<g><path style="opacity:1" fill="#4b4c2d" d="M 646.5,305.5 C 649.916,305.528 652.916,306.528 655.5,308.5C 652.145,308.31 649.145,307.31 646.5,305.5 Z"/></g>
<g><path style="opacity:1" fill="#52492b" d="M 655.5,308.5 C 661.423,309.138 666.756,311.138 671.5,314.5C 665.906,313.03 660.573,311.03 655.5,308.5 Z"/></g>
<g><path style="opacity:1" fill="#b3873d" d="M 673.5,315.5 C 677.277,315.934 680.61,317.267 683.5,319.5C 679.642,319.23 676.309,317.897 673.5,315.5 Z"/></g>
<g><path style="opacity:1" fill="#6c6034" d="M 687.5,319.5 C 690.238,319.706 692.572,320.706 694.5,322.5C 691.423,322.821 689.09,321.821 687.5,319.5 Z"/></g>
<g><path style="opacity:1" fill="#806735" d="M 695.5,322.5 C 698.397,323.129 701.064,324.129 703.5,325.5C 700.284,325.655 697.617,324.655 695.5,322.5 Z"/></g>
<g><path style="opacity:1" fill="#605635" d="M 703.5,325.5 C 707.764,325.477 711.431,326.81 714.5,329.5C 710.467,328.975 706.8,327.642 703.5,325.5 Z"/></g>
<g><path style="opacity:1" fill="#7c6734" d="M 719.5,331.5 C 722.152,331.41 724.485,332.076 726.5,333.5C 723.848,333.59 721.515,332.924 719.5,331.5 Z"/></g>
<g><path style="opacity:1" fill="#bf8734" d="M 731.5,335.5 C 737.349,336.453 742.683,338.453 747.5,341.5C 742.297,339.904 736.964,338.904 731.5,338.5C 731.5,337.5 731.5,336.5 731.5,335.5 Z"/></g>
<g><path style="opacity:1" fill="#47442e" d="M 783.5,353.5 C 789.695,352.789 795.028,354.456 799.5,358.5C 794.09,356.826 788.757,355.159 783.5,353.5 Z"/></g>
<g><path style="opacity:1" fill="#bc8932" d="M 804.5,360.5 C 807.061,360.447 809.061,361.447 810.5,363.5C 808.072,365.981 805.072,367.315 801.5,367.5C 801.279,366.265 800.612,365.265 799.5,364.5C 799.833,364.167 800.167,363.833 800.5,363.5C 803.166,364.738 805.832,364.738 808.5,363.5C 806.816,362.85 805.483,361.85 804.5,360.5 Z"/></g>
<g><path style="opacity:1" fill="#685836" d="M 799.5,368.5 C 794.738,371.663 789.405,373.329 783.5,373.5C 788.738,371.842 794.072,370.176 799.5,368.5 Z"/></g>
<g><path style="opacity:1" fill="#776132" d="M 780.5,374.5 C 776.785,377.493 772.452,379.16 767.5,379.5C 771.215,376.507 775.548,374.84 780.5,374.5 Z"/></g>
<g><path style="opacity:1" fill="#7b622f" d="M 767.5,379.5 C 764.061,381.204 760.395,382.538 756.5,383.5C 759.626,381.01 763.292,379.677 767.5,379.5 Z"/></g>
<g><path style="opacity:1" fill="#675b3a" d="M 755.5,383.5 C 754.909,384.151 754.243,384.818 753.5,385.5C 747.474,387.186 741.474,388.853 735.5,390.5C 741.715,387.068 748.381,384.735 755.5,383.5 Z"/></g>
<g><path style="opacity:1" fill="#c58932" d="M 735.5,390.5 C 731.226,391.565 727.226,393.232 723.5,395.5C 722.167,395.5 720.833,395.5 719.5,395.5C 719.36,393.876 720.027,392.71 721.5,392C 726.137,391.171 730.804,390.671 735.5,390.5 Z"/></g>
<g><path style="opacity:1" fill="#3e4138" d="M 719.5,395.5 C 720.833,395.5 722.167,395.5 723.5,395.5C 719.914,397.462 715.914,398.795 711.5,399.5C 713.93,397.619 716.596,396.285 719.5,395.5 Z"/></g>
<g><path style="opacity:1" fill="#886a3a" d="M 703.5,401.5 C 703.5,401.833 703.5,402.167 703.5,402.5C 700.779,402.963 698.112,403.629 695.5,404.5C 697.617,402.345 700.284,401.345 703.5,401.5 Z"/></g>
<g><path style="opacity:1" fill="#2e3834" d="M 703.5,402.5 C 699.028,406.544 693.695,408.211 687.5,407.5C 689.89,405.98 692.557,404.98 695.5,404.5C 698.112,403.629 700.779,402.963 703.5,402.5 Z"/></g>
<g><path style="opacity:1" fill="#716138" d="M 683.5,408.5 C 679.915,410.806 675.915,412.139 671.5,412.5C 675.085,410.194 679.085,408.861 683.5,408.5 Z"/></g>
<g><path style="opacity:1" fill="#363f3a" d="M 665.5,415.5 C 665.631,416.376 665.298,417.043 664.5,417.5C 662.459,418.236 660.459,419.069 658.5,420C 652.169,421.28 645.836,422.446 639.5,423.5C 647.9,420.258 656.567,417.591 665.5,415.5 Z"/></g>
<g><path style="opacity:1" fill="#5c512f" d="M 639.5,423.5 C 634.756,426.862 629.423,428.862 623.5,429.5C 628.557,426.98 633.891,424.98 639.5,423.5 Z"/></g>
<g><path style="opacity:1" fill="#876d38" d="M 615.5,431.5 C 613.383,433.655 610.716,434.655 607.5,434.5C 609.755,432.62 612.422,431.62 615.5,431.5 Z"/></g>
<g><path style="opacity:1" fill="#4e4b30" d="M 607.5,435.5 C 602.619,437.901 597.286,439.567 591.5,440.5C 596.367,437.657 601.7,435.991 607.5,435.5 Z"/></g>
<g><path style="opacity:1" fill="#5a4f2b" d="M 591.5,440.5 C 586.853,443.713 581.519,445.379 575.5,445.5C 580.762,443.859 586.095,442.192 591.5,440.5 Z"/></g>
<g><path style="opacity:1" fill="#9f7a3d" d="M 568.5,447.5 C 566.081,449.862 563.081,450.862 559.5,450.5C 562.294,449.079 565.294,448.079 568.5,447.5 Z"/></g>
<g><path style="opacity:1" fill="#535038" d="M 559.5,452.5 C 555.697,454.125 551.697,455.458 547.5,456.5C 548.058,455.21 549.058,454.377 550.5,454C 553.432,453.047 556.432,452.547 559.5,452.5 Z"/></g>
<g><path style="opacity:1" fill="#6d5c38" d="M 538.5,458.5 C 535.291,460.934 531.624,462.601 527.5,463.5C 530.426,460.542 534.093,458.875 538.5,458.5 Z"/></g>
<g><path style="opacity:1" fill="#424332" d="M 523.5,463.5 C 520.304,467.015 516.304,468.681 511.5,468.5C 511.5,468.167 511.5,467.833 511.5,467.5C 515.562,466.368 519.562,465.035 523.5,463.5 Z"/></g>
<g><path style="opacity:1" fill="#c18832" d="M 511.5,467.5 C 511.5,467.833 511.5,468.167 511.5,468.5C 511.5,468.833 511.5,469.167 511.5,469.5C 507.051,470.029 502.718,471.029 498.5,472.5C 498.539,471.417 498.873,470.417 499.5,469.5C 503.393,468.185 507.393,467.518 511.5,467.5 Z"/></g>
<g><path style="opacity:1" fill="#2c3737" d="M 511.5,469.5 C 506.979,473.41 501.645,475.077 495.5,474.5C 495.821,472.952 496.821,472.285 498.5,472.5C 502.718,471.029 507.051,470.029 511.5,469.5 Z"/></g>
<g><path style="opacity:1" fill="#45462d" d="M 489.5,476.5 C 486.749,478.975 483.416,479.975 479.5,479.5C 479.97,478.307 480.97,477.64 482.5,477.5C 484.818,477.003 487.152,476.67 489.5,476.5 Z"/></g>
<g><path style="opacity:1" fill="#ab823e" d="M 463.5,484.5 C 458.319,486.675 452.986,488.675 447.5,490.5C 448.348,488.907 449.681,487.74 451.5,487C 455.306,485.383 459.306,484.55 463.5,484.5 Z"/></g>
<g><path style="opacity:1" fill="#2f3937" d="M 479.5,479.5 C 475.842,481.366 472.176,483.532 468.5,486C 457.992,488.587 447.659,491.753 437.5,495.5C 439.364,493.986 441.364,492.653 443.5,491.5C 444.568,490.566 445.901,490.232 447.5,490.5C 452.986,488.675 458.319,486.675 463.5,484.5C 467.354,483.709 471.021,482.209 474.5,480C 476.134,479.506 477.801,479.34 479.5,479.5 Z"/></g>
<g><path style="opacity:1" fill="#937136" d="M 809.5,483.5 C 809.5,483.833 809.5,484.167 809.5,484.5C 800.713,486.583 792.046,489.25 783.5,492.5C 787.276,490.61 791.276,488.776 795.5,487C 800.203,485.824 804.87,484.658 809.5,483.5 Z"/></g>
<g><path style="opacity:1" fill="#65522b" d="M 443.5,491.5 C 441.364,492.653 439.364,493.986 437.5,495.5C 436.167,495.5 434.833,495.5 433.5,495.5C 436.192,492.819 439.525,491.486 443.5,491.5 Z"/></g>
<g><path style="opacity:1" fill="#9c7e40" d="M 783.5,492.5 C 781.396,493.912 779.063,494.912 776.5,495.5C 776.167,495.5 775.833,495.5 775.5,495.5C 777.617,493.345 780.284,492.345 783.5,492.5 Z"/></g>
<g><path style="opacity:1" fill="#e5921e" d="M 809.5,484.5 C 810.833,561.164 811.5,638.164 811.5,715.5C 811.333,792.5 811.167,869.5 811,946.5C 810.184,945.177 809.017,944.511 807.5,944.5C 809.496,793.043 810.163,641.376 809.5,489.5C 808.5,489.5 807.5,489.5 806.5,489.5C 806.5,640.833 806.5,792.167 806.5,943.5C 805.5,943.5 804.5,943.5 803.5,943.5C 803.833,794.165 803.5,644.832 802.5,495.5C 802.166,645.169 801.166,794.502 799.5,943.5C 798.167,943.5 796.833,943.5 795.5,943.5C 795.389,942.883 795.056,942.383 794.5,942C 790.896,940.846 787.229,940.013 783.5,939.5C 780.572,938.183 777.572,936.85 774.5,935.5C 774.389,934.883 774.056,934.383 773.5,934C 771.527,933.505 769.527,933.338 767.5,933.5C 767.5,933.167 767.5,932.833 767.5,932.5C 764.916,930.528 761.916,929.528 758.5,929.5C 757.365,927.787 755.698,927.12 753.5,927.5C 752.833,927.5 752.167,927.5 751.5,927.5C 751.5,926.5 751.5,925.5 751.5,924.5C 746.041,923.703 740.708,922.703 735.5,921.5C 730.51,919.061 725.177,917.394 719.5,916.5C 717.064,915.129 714.397,914.129 711.5,913.5C 708.79,912.494 706.124,911.494 703.5,910.5C 698.5,908.057 693.166,906.39 687.5,905.5C 687.5,905.167 687.5,904.833 687.5,904.5C 682.979,900.59 677.645,898.923 671.5,899.5C 670.082,897.692 668.082,897.025 665.5,897.5C 663.254,896.045 661.254,894.212 659.5,892C 656.167,891.667 652.833,891.333 649.5,891C 645.553,889.516 641.553,888.35 637.5,887.5C 631.232,882.296 623.899,879.629 615.5,879.5C 615.302,875.433 613.469,874.099 610,875.5C 607.176,874.946 604.343,874.446 601.5,874C 599.44,872.304 597.107,871.137 594.5,870.5C 594.306,868.93 594.306,867.43 594.5,866C 589.879,866.482 585.212,866.982 580.5,867.5C 578.585,867.784 576.919,867.451 575.5,866.5C 573.245,864.62 570.578,863.62 567.5,863.5C 557.697,860.425 548.03,857.092 538.5,853.5C 535.34,851 531.673,849.667 527.5,849.5C 524.054,848.072 520.387,847.239 516.5,847C 507.882,843.943 499.549,840.443 491.5,836.5C 488.032,833.886 484.032,832.886 479.5,833.5C 479.179,831.952 478.179,831.285 476.5,831.5C 476.423,830.25 475.756,829.417 474.5,829C 469.928,827.827 465.595,826.16 461.5,824C 462.167,823.667 462.833,823.333 463.5,823C 462.234,822.691 461.067,822.191 460,821.5C 455.891,822.556 451.725,822.556 447.5,821.5C 442.51,819.061 437.177,817.394 431.5,816.5C 430.081,815.549 428.415,815.216 426.5,815.5C 423.109,813.257 419.442,811.59 415.5,810.5C 410.5,808.057 405.166,806.39 399.5,805.5C 394.857,801.853 389.524,799.853 383.5,799.5C 382.5,799.5 381.5,799.5 380.5,799.5C 378.605,797.557 376.272,796.057 373.5,795C 371.527,794.505 369.527,794.338 367.5,794.5C 364.785,792.928 361.785,791.928 358.5,791.5C 358.389,790.883 358.056,790.383 357.5,790C 355.527,789.505 353.527,789.338 351.5,789.5C 348.008,787.931 344.341,786.598 340.5,785.5C 339.365,783.787 337.698,783.12 335.5,783.5C 335.5,782.5 335.5,781.5 335.5,780.5C 332.654,780.97 330.321,780.137 328.5,778C 329.167,777.667 329.833,777.333 330.5,777C 328.579,776.64 326.912,775.806 325.5,774.5C 324.304,774.846 324.304,775.346 325.5,776C 322.101,776.546 318.768,776.213 315.5,775C 316.336,773.757 316.003,772.59 314.5,771.5C 311.555,770.166 308.555,768.833 305.5,767.5C 300.814,768.83 296.148,768.83 291.5,767.5C 289.901,767.768 288.568,767.434 287.5,766.5C 284.447,764.032 280.78,762.699 276.5,762.5C 274.694,761.976 273.028,761.309 271.5,760.5C 271.063,758.926 270.063,757.759 268.5,757C 269.5,756.667 270.5,756.333 271.5,756C 268.833,756 266.167,756 263.5,756C 259.728,754.611 259.728,753.611 263.5,753C 260.883,752.178 258.216,751.678 255.5,751.5C 255.5,750.5 255.5,749.5 255.5,748.5C 253.046,748.321 250.879,748.987 249,750.5C 246.065,748.808 242.898,748.142 239.5,748.5C 238.833,748.5 238.167,748.5 237.5,748.5C 235.73,747.236 234.063,745.736 232.5,744C 233.167,743.667 233.833,743.333 234.5,743C 233.328,742.581 232.328,741.915 231.5,741C 229.489,742.07 226.155,742.403 221.5,742C 220.833,741.333 220.167,740.667 219.5,740C 223.167,739.667 226.833,739.333 230.5,739C 225.529,736.258 220.529,736.425 215.5,739.5C 210.53,736.974 205.196,735.641 199.5,735.5C 198.5,735.5 197.5,735.5 196.5,735.5C 196.047,734.542 195.381,733.708 194.5,733C 190.811,732.148 187.144,731.315 183.5,730.5C 180.275,729.193 176.941,728.193 173.5,727.5C 169.236,724.951 164.569,723.285 159.5,722.5C 156.329,720.283 152.663,719.116 148.5,719C 147.944,718.617 147.611,718.117 147.5,717.5C 146.909,716.849 146.243,716.182 145.5,715.5C 149.999,712.897 154.665,710.897 159.5,709.5C 159.5,709.167 159.5,708.833 159.5,708.5C 164.831,708.345 169.498,706.679 173.5,703.5C 174.167,703.5 174.833,703.5 175.5,703.5C 178.018,702.736 180.351,701.736 182.5,700.5C 182.833,700.5 183.167,700.5 183.5,700.5C 186.397,699.871 189.064,698.871 191.5,697.5C 195.358,697.23 198.691,695.897 201.5,693.5C 203.435,692.85 205.435,692.517 207.5,692.5C 211.1,691.956 214.6,690.956 218,689.5C 219.03,689.164 219.53,688.497 219.5,687.5C 221.099,687.768 222.432,687.434 223.5,686.5C 227.787,685.768 231.787,684.435 235.5,682.5C 236.833,681.833 238.167,681.167 239.5,680.5C 243.915,680.139 247.915,678.806 251.5,676.5C 254.409,674.937 257.409,673.604 260.5,672.5C 264.099,671.656 267.766,671.323 271.5,671.5C 271.5,670.5 271.5,669.5 271.5,668.5C 277.085,667.77 282.418,666.437 287.5,664.5C 287.5,664.167 287.5,663.833 287.5,663.5C 293.448,663.404 298.782,661.737 303.5,658.5C 306.716,658.655 309.383,657.655 311.5,655.5C 311.833,655.5 312.167,655.5 312.5,655.5C 314.479,653.832 316.812,653.166 319.5,653.5C 329.493,651.828 338.827,648.495 347.5,643.5C 351.241,641.642 355.241,640.309 359.5,639.5C 361.698,639.88 363.365,639.213 364.5,637.5C 365.791,637.737 366.791,637.404 367.5,636.5C 373.09,635.032 378.423,633.032 383.5,630.5C 387.664,629.884 391.664,628.884 395.5,627.5C 398.187,627.664 400.854,627.497 403.5,627C 407.347,624.416 411.347,622.25 415.5,620.5C 415.5,620.167 415.5,619.833 415.5,619.5C 420.777,619.882 425.777,618.882 430.5,616.5C 431.298,616.043 431.631,615.376 431.5,614.5C 431.5,614.167 431.5,613.833 431.5,613.5C 435.915,613.139 439.915,611.806 443.5,609.5C 446.734,608.424 450.068,607.757 453.5,607.5C 457.306,606.908 460.639,605.575 463.5,603.5C 469.237,602.674 474.57,601.007 479.5,598.5C 480.183,596.824 481.517,596.157 483.5,596.5C 487.739,595.204 491.739,593.538 495.5,591.5C 497.099,591.768 498.432,591.434 499.5,590.5C 503.659,589.336 507.659,588.003 511.5,586.5C 511.5,586.167 511.5,585.833 511.5,585.5C 516.984,584.758 522.317,583.424 527.5,581.5C 532.704,581.073 537.704,579.74 542.5,577.5C 543.298,577.043 543.631,576.376 543.5,575.5C 546.006,574.25 548.673,573.584 551.5,573.5C 554.049,573.613 556.382,572.946 558.5,571.5C 559.167,572.167 559.833,572.833 560.5,573.5C 562.875,571.735 565.542,570.568 568.5,570C 570.54,567.664 572.873,565.831 575.5,564.5C 580.823,564.955 585.156,563.289 588.5,559.5C 589.791,559.737 590.791,559.404 591.5,558.5C 596.777,558.882 601.777,557.882 606.5,555.5C 607.298,555.043 607.631,554.376 607.5,553.5C 613.033,552.21 618.366,550.543 623.5,548.5C 626.811,548.693 629.478,547.693 631.5,545.5C 631.611,544.883 631.944,544.383 632.5,544C 635.036,543.814 637.369,543.314 639.5,542.5C 643.915,542.139 647.915,540.806 651.5,538.5C 652.833,537.833 654.167,537.167 655.5,536.5C 659.915,536.139 663.915,534.806 667.5,532.5C 668.833,531.833 670.167,531.167 671.5,530.5C 674.716,530.655 677.383,529.655 679.5,527.5C 679.833,527.5 680.167,527.5 680.5,527.5C 683.388,528.01 685.721,527.344 687.5,525.5C 693.73,526.199 699.063,524.532 703.5,520.5C 705.599,519.388 707.933,518.721 710.5,518.5C 715.983,516.404 721.65,514.904 727.5,514C 730.359,512.74 733.026,511.24 735.5,509.5C 735.5,509.167 735.5,508.833 735.5,508.5C 741.177,507.606 746.51,505.939 751.5,503.5C 754.187,503.664 756.854,503.497 759.5,503C 764.001,501.083 768.668,499.749 773.5,499C 775.056,498.28 776.056,497.113 776.5,495.5C 779.063,494.912 781.396,493.912 783.5,492.5C 792.046,489.25 800.713,486.583 809.5,484.5 Z"/></g>
<g><path style="opacity:1" fill="#e1961b" d="M 807.5,944.5 C 807.5,944.833 807.5,945.167 807.5,945.5C 804.833,945.167 802.167,944.833 799.5,944.5C 799.5,944.167 799.5,943.833 799.5,943.5C 801.166,794.502 802.166,645.169 802.5,495.5C 803.5,644.832 803.833,794.165 803.5,943.5C 804.5,943.5 805.5,943.5 806.5,943.5C 806.5,792.167 806.5,640.833 806.5,489.5C 807.5,489.5 808.5,489.5 809.5,489.5C 810.163,641.376 809.496,793.043 807.5,944.5 Z"/></g>
<g><path style="opacity:1" fill="#de9628" d="M 809.5,484.5 C 809.5,484.167 809.5,483.833 809.5,483.5C 810.5,483.5 811.5,483.5 812.5,483.5C 812.5,638.167 812.5,792.833 812.5,947.5C 811.5,947.5 810.5,947.5 809.5,947.5C 809.167,946.5 808.5,945.833 807.5,945.5C 807.5,945.167 807.5,944.833 807.5,944.5C 809.017,944.511 810.184,945.177 811,946.5C 811.167,869.5 811.333,792.5 811.5,715.5C 811.5,638.164 810.833,561.164 809.5,484.5 Z"/></g>
<g><path style="opacity:1" fill="#907028" d="M 809.5,483.5 C 810.568,482.566 811.901,482.232 813.5,482.5C 813.5,637.833 813.5,793.167 813.5,948.5C 811.901,948.768 810.568,948.434 809.5,947.5C 810.5,947.5 811.5,947.5 812.5,947.5C 812.5,792.833 812.5,638.167 812.5,483.5C 811.5,483.5 810.5,483.5 809.5,483.5 Z"/></g>
<g><path style="opacity:1" fill="#655832" d="M 431.5,495.5 C 431.38,496.586 430.713,497.253 429.5,497.5C 424.988,499.426 420.321,500.759 415.5,501.5C 420.537,498.929 425.871,496.929 431.5,495.5 Z"/></g>
<g><path style="opacity:1" fill="#c28b31" d="M 775.5,495.5 C 775.833,495.5 776.167,495.5 776.5,495.5C 776.056,497.113 775.056,498.28 773.5,499C 768.668,499.749 764.001,501.083 759.5,503C 756.854,503.497 754.187,503.664 751.5,503.5C 757.124,500.897 762.957,498.564 769,496.5C 771.099,495.713 773.266,495.38 775.5,495.5 Z"/></g>
<g><path style="opacity:1" fill="#625830" d="M 409.5,503.5 C 409.389,504.117 409.056,504.617 408.5,505C 405.479,505.849 402.479,506.683 399.5,507.5C 399.47,506.503 399.97,505.836 401,505.5C 403.835,504.767 406.668,504.1 409.5,503.5 Z"/></g>
<g><path style="opacity:1" fill="#7c6532" d="M 751.5,503.5 C 746.51,505.939 741.177,507.606 735.5,508.5C 740.394,505.736 745.727,504.069 751.5,503.5 Z"/></g>
<g><path style="opacity:1" fill="#b78736" d="M 735.5,509.5 C 733.026,511.24 730.359,512.74 727.5,514C 721.65,514.904 715.983,516.404 710.5,518.5C 713.949,516.126 717.616,514.126 721.5,512.5C 726.286,511.706 730.953,510.706 735.5,509.5 Z"/></g>
<g><path style="opacity:1" fill="#6d5c34" d="M 383.5,512.5 C 380.823,514.46 377.823,515.96 374.5,517C 366.827,519.171 359.16,521.338 351.5,523.5C 361.675,518.617 372.342,514.95 383.5,512.5 Z"/></g>
<g><path style="opacity:1" fill="#34403a" d="M 721.5,512.5 C 717.616,514.126 713.949,516.126 710.5,518.5C 707.933,518.721 705.599,519.388 703.5,520.5C 698.125,522.171 692.792,523.837 687.5,525.5C 685.721,527.344 683.388,528.01 680.5,527.5C 680.511,525.983 681.177,524.816 682.5,524C 693.789,521.188 704.789,517.521 715.5,513C 717.473,512.505 719.473,512.338 721.5,512.5 Z"/></g>
<g><path style="opacity:1" fill="#b88a3b" d="M 703.5,520.5 C 699.063,524.532 693.73,526.199 687.5,525.5C 692.792,523.837 698.125,522.171 703.5,520.5 Z"/></g>
<g><path style="opacity:1" fill="#5a532e" d="M 679.5,527.5 C 677.383,529.655 674.716,530.655 671.5,530.5C 673.755,528.62 676.422,527.62 679.5,527.5 Z"/></g>
<g><path style="opacity:1" fill="#363d30" d="M 340.5,527.5 C 339.426,529.284 337.76,530.451 335.5,531C 332.454,531.739 329.454,532.572 326.5,533.5C 329.372,531.649 332.372,529.983 335.5,528.5C 336.919,527.549 338.585,527.216 340.5,527.5 Z"/></g>
<g><path style="opacity:1" fill="#796338" d="M 335.5,528.5 C 332.372,529.983 329.372,531.649 326.5,533.5C 324.236,534.219 321.903,534.552 319.5,534.5C 324.382,531.536 329.715,529.536 335.5,528.5 Z"/></g>
<g><path style="opacity:1" fill="#856f39" d="M 667.5,532.5 C 663.915,534.806 659.915,536.139 655.5,536.5C 659.085,534.194 663.085,532.861 667.5,532.5 Z"/></g>
<g><path style="opacity:1" fill="#675b30" d="M 319.5,534.5 C 317.478,536.693 314.811,537.693 311.5,537.5C 313.503,535.018 316.169,534.018 319.5,534.5 Z"/></g>
<g><path style="opacity:1" fill="#957439" d="M 311.5,537.5 C 309.095,538.768 306.428,539.435 303.5,539.5C 305.838,537.96 308.505,537.294 311.5,537.5 Z"/></g>
<g><path style="opacity:1" fill="#a37c3f" d="M 651.5,538.5 C 647.915,540.806 643.915,542.139 639.5,542.5C 643.085,540.194 647.085,538.861 651.5,538.5 Z"/></g>
<g><path style="opacity:1" fill="#715f33" d="M 303.5,540.5 C 301.104,542.023 298.438,543.023 295.5,543.5C 297.557,541.144 300.224,540.144 303.5,540.5 Z"/></g>
<g><path style="opacity:1" fill="#5e5337" d="M 287.5,546.5 C 285.698,547.458 283.698,548.125 281.5,548.5C 282.918,546.692 284.918,546.025 287.5,546.5 Z"/></g>
<g><path style="opacity:1" fill="#b9883c" d="M 631.5,545.5 C 629.478,547.693 626.811,548.693 623.5,548.5C 625.522,546.307 628.189,545.307 631.5,545.5 Z"/></g>
<g><path style="opacity:1" fill="#9b7639" d="M 618.5,548.5 C 620.167,548.5 621.833,548.5 623.5,548.5C 618.366,550.543 613.033,552.21 607.5,553.5C 611.083,551.64 614.749,549.973 618.5,548.5 Z"/></g>
<g><path style="opacity:1" fill="#45442f" d="M 281.5,548.5 C 281.03,549.693 280.03,550.36 278.5,550.5C 276.182,550.997 273.848,551.33 271.5,551.5C 274.452,549.59 277.786,548.59 281.5,548.5 Z"/></g>
<g><path style="opacity:1" fill="#2b3836" d="M 618.5,548.5 C 614.749,549.973 611.083,551.64 607.5,553.5C 602.33,555.304 596.997,556.637 591.5,557.5C 600.027,552.947 609.027,549.947 618.5,548.5 Z"/></g>
<g><path style="opacity:1" fill="#816734" d="M 262.5,554.5 C 260.485,555.924 258.152,556.59 255.5,556.5C 257.515,555.076 259.848,554.41 262.5,554.5 Z"/></g>
<g><path style="opacity:1" fill="#b48438" d="M 607.5,553.5 C 607.631,554.376 607.298,555.043 606.5,555.5C 601.777,557.882 596.777,558.882 591.5,558.5C 591.5,558.167 591.5,557.833 591.5,557.5C 596.997,556.637 602.33,555.304 607.5,553.5 Z"/></g>
<g><path style="opacity:1" fill="#585235" d="M 246.5,559.5 C 244.91,561.821 242.577,562.821 239.5,562.5C 241.649,561.264 243.982,560.264 246.5,559.5 Z"/></g>
<g><path style="opacity:1" fill="#ab8235" d="M 588.5,559.5 C 585.156,563.289 580.823,564.955 575.5,564.5C 579.48,562.081 583.813,560.414 588.5,559.5 Z"/></g>
<g><path style="opacity:1" fill="#4b442a" d="M 239.5,562.5 C 239.38,563.586 238.713,564.253 237.5,564.5C 232.988,566.426 228.321,567.759 223.5,568.5C 228.555,565.924 233.888,563.924 239.5,562.5 Z"/></g>
<g><path style="opacity:1" fill="#353c31" d="M 223.5,568.5 C 218.186,572.34 212.186,574.674 205.5,575.5C 210.785,571.663 216.785,569.33 223.5,568.5 Z"/></g>
<g><path style="opacity:1" fill="#cc8d2e" d="M 575.5,564.5 C 572.873,565.831 570.54,567.664 568.5,570C 565.542,570.568 562.875,571.735 560.5,573.5C 559.833,572.833 559.167,572.167 558.5,571.5C 556.382,572.946 554.049,573.613 551.5,573.5C 552.833,572.5 554.167,571.5 555.5,570.5C 562.215,568.707 568.881,566.707 575.5,564.5 Z"/></g>
<g><path style="opacity:1" fill="#494c33" d="M 555.5,570.5 C 554.167,571.5 552.833,572.5 551.5,573.5C 548.673,573.584 546.006,574.25 543.5,575.5C 545.395,573.557 547.728,572.057 550.5,571C 552.134,570.506 553.801,570.34 555.5,570.5 Z"/></g>
<g><path style="opacity:1" fill="#b9853a" d="M 543.5,575.5 C 543.631,576.376 543.298,577.043 542.5,577.5C 537.704,579.74 532.704,581.073 527.5,581.5C 527.5,581.167 527.5,580.833 527.5,580.5C 530.152,580.59 532.485,579.924 534.5,578.5C 536.997,576.129 539.997,575.129 543.5,575.5 Z"/></g>
<g><path style="opacity:1" fill="#6c6236" d="M 534.5,578.5 C 532.485,579.924 530.152,580.59 527.5,580.5C 529.515,579.076 531.848,578.41 534.5,578.5 Z"/></g>
<g><path style="opacity:1" fill="#454329" d="M 527.5,580.5 C 527.5,580.833 527.5,581.167 527.5,581.5C 522.317,583.424 516.984,584.758 511.5,585.5C 516.317,582.621 521.65,580.955 527.5,580.5 Z"/></g>
<g><path style="opacity:1" fill="#685933" d="M 191.5,579.5 C 186.51,581.939 181.177,583.606 175.5,584.5C 180.397,581.647 185.73,579.98 191.5,579.5 Z"/></g>
<g><path style="opacity:1" fill="#50482d" d="M 175.5,585.5 C 170.42,587.691 165.087,589.358 159.5,590.5C 164.376,587.654 169.709,585.987 175.5,585.5 Z"/></g>
<g><path style="opacity:1" fill="#584e2f" d="M 511.5,586.5 C 507.659,588.003 503.659,589.336 499.5,590.5C 502.836,587.514 506.836,586.181 511.5,586.5 Z"/></g>
<g><path style="opacity:1" fill="#5a532d" d="M 495.5,591.5 C 491.739,593.538 487.739,595.204 483.5,596.5C 484.058,595.21 485.058,594.377 486.5,594C 489.353,592.57 492.353,591.737 495.5,591.5 Z"/></g>
<g><path style="opacity:1" fill="#a9803e" d="M 479.5,598.5 C 474.57,601.007 469.237,602.674 463.5,603.5C 464.6,602.442 465.934,601.608 467.5,601C 471.453,599.852 475.453,599.018 479.5,598.5 Z"/></g>
<g><path style="opacity:1" fill="#a98640" d="M 463.5,603.5 C 460.639,605.575 457.306,606.908 453.5,607.5C 456.131,604.663 459.465,603.33 463.5,603.5 Z"/></g>
<g><path style="opacity:1" fill="#585031" d="M 443.5,609.5 C 439.915,611.806 435.915,613.139 431.5,613.5C 435.233,611.589 439.233,610.256 443.5,609.5 Z"/></g>
<g><path style="opacity:1" fill="#b68336" d="M 431.5,614.5 C 431.631,615.376 431.298,616.043 430.5,616.5C 425.777,618.882 420.777,619.882 415.5,619.5C 420.792,617.837 426.125,616.171 431.5,614.5 Z"/></g>
<g><path style="opacity:1" fill="#5c5031" d="M 399.5,624.5 C 398.552,625.978 397.219,626.978 395.5,627.5C 391.664,628.884 387.664,629.884 383.5,630.5C 388.399,627.531 393.733,625.531 399.5,624.5 Z"/></g>
<g><path style="opacity:1" fill="#c38938" d="M 415.5,620.5 C 411.347,622.25 407.347,624.416 403.5,627C 400.854,627.497 398.187,627.664 395.5,627.5C 397.219,626.978 398.552,625.978 399.5,624.5C 404.428,622.268 409.761,620.934 415.5,620.5 Z"/></g>
<g><path style="opacity:1" fill="#6e5b32" d="M 383.5,630.5 C 378.423,633.032 373.09,635.032 367.5,636.5C 372.226,633.145 377.559,631.145 383.5,630.5 Z"/></g>
<g><path style="opacity:1" fill="#9c7d49" d="M 364.5,637.5 C 363.365,639.213 361.698,639.88 359.5,639.5C 360.635,637.787 362.302,637.12 364.5,637.5 Z"/></g>
<g><path style="opacity:1" fill="#2b3d3e" d="M 339.5,645.5 C 332.788,647.962 326.122,650.628 319.5,653.5C 316.812,653.166 314.479,653.832 312.5,655.5C 312.414,654.504 312.748,653.671 313.5,653C 316.646,652.89 317.646,651.557 316.5,649C 318.019,646.073 320.353,645.073 323.5,646C 322.437,647.188 321.103,647.688 319.5,647.5C 319.5,648.5 319.5,649.5 319.5,650.5C 326.191,648.782 332.858,647.116 339.5,645.5 Z"/></g>
<g><path style="opacity:1" fill="#b98a3b" d="M 347.5,643.5 C 338.827,648.495 329.493,651.828 319.5,653.5C 326.122,650.628 332.788,647.962 339.5,645.5C 342.004,644.361 344.67,643.694 347.5,643.5 Z"/></g>
<g><path style="opacity:1" fill="#846837" d="M 311.5,655.5 C 309.383,657.655 306.716,658.655 303.5,658.5C 305.755,656.62 308.422,655.62 311.5,655.5 Z"/></g>
<g><path style="opacity:1" fill="#7e6838" d="M 303.5,658.5 C 298.782,661.737 293.448,663.404 287.5,663.5C 288.808,662.768 290.142,661.934 291.5,661C 295.695,660.668 299.695,659.835 303.5,658.5 Z"/></g>
<g><path style="opacity:1" fill="#354344" d="M 287.5,664.5 C 282.418,666.437 277.085,667.77 271.5,668.5C 271.5,669.5 271.5,670.5 271.5,671.5C 267.766,671.323 264.099,671.656 260.5,672.5C 260.414,671.504 260.748,670.671 261.5,670C 260.833,669.667 260.167,669.333 259.5,669C 268.942,667.947 278.275,666.447 287.5,664.5 Z"/></g>
<g><path style="opacity:1" fill="#796534" d="M 251.5,676.5 C 247.915,678.806 243.915,680.139 239.5,680.5C 243.085,678.194 247.085,676.861 251.5,676.5 Z"/></g>
<g><path style="opacity:1" fill="#897038" d="M 235.5,682.5 C 231.787,684.435 227.787,685.768 223.5,686.5C 226.974,684.23 230.974,682.897 235.5,682.5 Z"/></g>
<g><path style="opacity:1" fill="#353e2d" d="M 217.5,687.5 C 214.482,689.4 211.149,690.733 207.5,691.5C 210.028,688.582 213.361,687.248 217.5,687.5 Z"/></g>
<g><path style="opacity:1" fill="#af853b" d="M 217.5,687.5 C 218.167,687.5 218.833,687.5 219.5,687.5C 219.53,688.497 219.03,689.164 218,689.5C 214.6,690.956 211.1,691.956 207.5,692.5C 207.5,692.167 207.5,691.833 207.5,691.5C 211.149,690.733 214.482,689.4 217.5,687.5 Z"/></g>
<g><path style="opacity:1" fill="#7e6a35" d="M 201.5,693.5 C 198.691,695.897 195.358,697.23 191.5,697.5C 193.382,696.249 195.382,695.082 197.5,694C 198.793,693.51 200.127,693.343 201.5,693.5 Z"/></g>
<g><path style="opacity:1" fill="#7d6839" d="M 191.5,697.5 C 189.064,698.871 186.397,699.871 183.5,700.5C 185.617,698.345 188.284,697.345 191.5,697.5 Z"/></g>
<g><path style="opacity:1" fill="#786132" d="M 182.5,700.5 C 180.351,701.736 178.018,702.736 175.5,703.5C 177.09,701.179 179.423,700.179 182.5,700.5 Z"/></g>
<g><path style="opacity:1" fill="#363e35" d="M 159.5,707.5 C 159.5,707.833 159.5,708.167 159.5,708.5C 159.5,708.833 159.5,709.167 159.5,709.5C 155.751,709.751 152.085,710.417 148.5,711.5C 151.793,709.224 155.46,707.891 159.5,707.5 Z"/></g>
<g><path style="opacity:1" fill="#957439" d="M 173.5,703.5 C 169.498,706.679 164.831,708.345 159.5,708.5C 159.5,708.167 159.5,707.833 159.5,707.5C 164.394,706.705 169.061,705.372 173.5,703.5 Z"/></g>
<g><path style="opacity:1" fill="#a98239" d="M 159.5,709.5 C 154.665,710.897 149.999,712.897 145.5,715.5C 146.243,716.182 146.909,716.849 147.5,717.5C 146.167,717.5 144.833,717.5 143.5,717.5C 143.5,715.833 143.5,714.167 143.5,712.5C 145.415,712.784 147.081,712.451 148.5,711.5C 152.085,710.417 155.751,709.751 159.5,709.5 Z"/></g>
<g><path style="opacity:1" fill="#594b2a" d="M 159.5,722.5 C 164.569,723.285 169.236,724.951 173.5,727.5C 168.362,726.921 163.695,725.254 159.5,722.5 Z"/></g>
<g><path style="opacity:1" fill="#8b713a" d="M 183.5,730.5 C 187.144,731.315 190.811,732.148 194.5,733C 195.381,733.708 196.047,734.542 196.5,735.5C 191.923,734.356 187.59,732.69 183.5,730.5 Z"/></g>
<g><path style="opacity:1" fill="#d79229" d="M 199.5,735.5 C 205.196,735.641 210.53,736.974 215.5,739.5C 220.529,736.425 225.529,736.258 230.5,739C 226.833,739.333 223.167,739.667 219.5,740C 220.167,740.667 220.833,741.333 221.5,742C 226.155,742.403 229.489,742.07 231.5,741C 232.328,741.915 233.328,742.581 234.5,743C 233.833,743.333 233.167,743.667 232.5,744C 234.063,745.736 235.73,747.236 237.5,748.5C 233.899,747.537 230.233,746.87 226.5,746.5C 225.5,745.833 224.5,745.167 223.5,744.5C 218.202,742.84 212.869,741.173 207.5,739.5C 204.547,738.738 201.88,737.405 199.5,735.5 Z"/></g>
<g><path style="opacity:1" fill="#37413a" d="M 207.5,739.5 C 212.869,741.173 218.202,742.84 223.5,744.5C 218.07,744.464 212.737,743.797 207.5,742.5C 207.5,741.5 207.5,740.5 207.5,739.5 Z"/></g>
<g><path style="opacity:1" fill="#333f3e" d="M 226.5,746.5 C 230.233,746.87 233.899,747.537 237.5,748.5C 238.167,748.5 238.833,748.5 239.5,748.5C 239.5,749.167 239.5,749.833 239.5,750.5C 237.152,750.33 234.818,749.997 232.5,749.5C 229.564,750.649 226.564,751.149 223.5,751C 225.863,750.411 226.863,748.911 226.5,746.5 Z"/></g>
<g><path style="opacity:1" fill="#d68e2b" d="M 239.5,748.5 C 242.898,748.142 246.065,748.808 249,750.5C 250.879,748.987 253.046,748.321 255.5,748.5C 255.5,749.5 255.5,750.5 255.5,751.5C 258.216,751.678 260.883,752.178 263.5,753C 259.728,753.611 259.728,754.611 263.5,756C 266.167,756 268.833,756 271.5,756C 270.5,756.333 269.5,756.667 268.5,757C 270.063,757.759 271.063,758.926 271.5,760.5C 260.678,757.112 250.012,753.778 239.5,750.5C 239.5,749.833 239.5,749.167 239.5,748.5 Z"/></g>
<g><path style="opacity:1" fill="#a9803f" d="M 276.5,762.5 C 280.78,762.699 284.447,764.032 287.5,766.5C 283.617,765.541 279.95,764.208 276.5,762.5 Z"/></g>
<g><path style="opacity:1" fill="#d28f2c" d="M 291.5,767.5 C 296.148,768.83 300.814,768.83 305.5,767.5C 308.555,768.833 311.555,770.166 314.5,771.5C 316.003,772.59 316.336,773.757 315.5,775C 318.768,776.213 322.101,776.546 325.5,776C 324.304,775.346 324.304,774.846 325.5,774.5C 326.912,775.806 328.579,776.64 330.5,777C 329.833,777.333 329.167,777.667 328.5,778C 330.321,780.137 332.654,780.97 335.5,780.5C 335.5,781.5 335.5,782.5 335.5,783.5C 328.394,781.354 321.394,779.02 314.5,776.5C 311.374,774.01 307.708,772.677 303.5,772.5C 299.999,771.2 296.333,770.034 292.5,769C 291.944,768.617 291.611,768.117 291.5,767.5 Z"/></g>
<g><path style="opacity:1" fill="#67562e" d="M 303.5,772.5 C 307.708,772.677 311.374,774.01 314.5,776.5C 310.467,775.975 306.8,774.642 303.5,772.5 Z"/></g>
<g><path style="opacity:1" fill="#535231" d="M 335.5,783.5 C 337.698,783.12 339.365,783.787 340.5,785.5C 338.219,785.923 336.552,785.256 335.5,783.5 Z"/></g>
<g><path style="opacity:1" fill="#75643b" d="M 351.5,789.5 C 353.527,789.338 355.527,789.505 357.5,790C 358.056,790.383 358.389,790.883 358.5,791.5C 355.99,791.073 353.657,790.407 351.5,789.5 Z"/></g>
<g><path style="opacity:1" fill="#8b6f36" d="M 367.5,794.5 C 369.527,794.338 371.527,794.505 373.5,795C 376.272,796.057 378.605,797.557 380.5,799.5C 376.013,798.008 371.68,796.342 367.5,794.5 Z"/></g>
<g><path style="opacity:1" fill="#9f7b38" d="M 383.5,799.5 C 389.524,799.853 394.857,801.853 399.5,805.5C 393.798,803.961 388.464,801.961 383.5,799.5 Z"/></g>
<g><path style="opacity:1" fill="#8b7334" d="M 399.5,806.5 C 399.5,806.167 399.5,805.833 399.5,805.5C 405.166,806.39 410.5,808.057 415.5,810.5C 410.118,809.373 404.784,808.039 399.5,806.5 Z"/></g>
<g><path style="opacity:1" fill="#3a3f35" d="M 399.5,806.5 C 404.784,808.039 410.118,809.373 415.5,810.5C 419.442,811.59 423.109,813.257 426.5,815.5C 420.971,813.56 415.304,812.06 409.5,811C 405.807,810.092 402.473,808.592 399.5,806.5 Z"/></g>
<g><path style="opacity:1" fill="#876e32" d="M 431.5,816.5 C 437.177,817.394 442.51,819.061 447.5,821.5C 441.709,821.013 436.376,819.346 431.5,816.5 Z"/></g>
<g><path style="opacity:1" fill="#d18f31" d="M 447.5,821.5 C 451.725,822.556 455.891,822.556 460,821.5C 461.067,822.191 462.234,822.691 463.5,823C 462.833,823.333 462.167,823.667 461.5,824C 465.595,826.16 469.928,827.827 474.5,829C 475.756,829.417 476.423,830.25 476.5,831.5C 475.833,831.5 475.167,831.5 474.5,831.5C 471.34,829 467.673,827.667 463.5,827.5C 457.859,826.068 452.525,824.068 447.5,821.5 Z"/></g>
<g><path style="opacity:1" fill="#8d7030" d="M 463.5,827.5 C 467.673,827.667 471.34,829 474.5,831.5C 470.467,830.975 466.8,829.642 463.5,827.5 Z"/></g>
<g><path style="opacity:1" fill="#b7893c" d="M 479.5,833.5 C 484.032,832.886 488.032,833.886 491.5,836.5C 487.404,835.492 483.404,834.492 479.5,833.5 Z"/></g>
<g><path style="opacity:1" fill="#997a3b" d="M 527.5,849.5 C 531.673,849.667 535.34,851 538.5,853.5C 534.467,852.975 530.8,851.642 527.5,849.5 Z"/></g>
<g><path style="opacity:1" fill="#746036" d="M 567.5,863.5 C 570.578,863.62 573.245,864.62 575.5,866.5C 572.169,866.982 569.503,865.982 567.5,863.5 Z"/></g>
<g><path style="opacity:1" fill="#d5902c" d="M 615.5,879.5 C 610.673,879.059 606.007,877.893 601.5,876C 594.336,873.307 587.336,870.473 580.5,867.5C 585.212,866.982 589.879,866.482 594.5,866C 594.306,867.43 594.306,868.93 594.5,870.5C 597.107,871.137 599.44,872.304 601.5,874C 604.343,874.446 607.176,874.946 610,875.5C 613.469,874.099 615.302,875.433 615.5,879.5 Z"/></g>
<g><path style="opacity:1" fill="#c38c32" d="M 615.5,879.5 C 623.899,879.629 631.232,882.296 637.5,887.5C 634.921,887.606 632.588,886.939 630.5,885.5C 628.485,884.076 626.152,883.41 623.5,883.5C 620.431,883.015 617.764,881.681 615.5,879.5 Z"/></g>
<g><path style="opacity:1" fill="#6a5e35" d="M 623.5,883.5 C 626.152,883.41 628.485,884.076 630.5,885.5C 627.848,885.59 625.515,884.924 623.5,883.5 Z"/></g>
<g><path style="opacity:1" fill="#b2832f" d="M 637.5,887.5 C 641.553,888.35 645.553,889.516 649.5,891C 652.833,891.333 656.167,891.667 659.5,892C 661.254,894.212 663.254,896.045 665.5,897.5C 655.834,895.037 646.501,891.703 637.5,887.5 Z"/></g>
<g><path style="opacity:1" fill="#a07c41" d="M 665.5,897.5 C 668.082,897.025 670.082,897.692 671.5,899.5C 669.214,899.405 667.214,898.738 665.5,897.5 Z"/></g>
<g><path style="opacity:1" fill="#b68636" d="M 671.5,899.5 C 677.645,898.923 682.979,900.59 687.5,904.5C 681.709,904.013 676.376,902.346 671.5,899.5 Z"/></g>
<g><path style="opacity:1" fill="#7a6638" d="M 687.5,905.5 C 693.166,906.39 698.5,908.057 703.5,910.5C 697.834,909.61 692.5,907.943 687.5,905.5 Z"/></g>
<g><path style="opacity:1" fill="#574d30" d="M 711.5,913.5 C 714.397,914.129 717.064,915.129 719.5,916.5C 716.169,916.982 713.503,915.982 711.5,913.5 Z"/></g>
<g><path style="opacity:1" fill="#564e30" d="M 719.5,916.5 C 725.177,917.394 730.51,919.061 735.5,921.5C 735.5,921.833 735.5,922.167 735.5,922.5C 733.473,922.662 731.473,922.495 729.5,922C 726.45,919.497 723.117,917.664 719.5,916.5 Z"/></g>
<g><path style="opacity:1" fill="#bc8636" d="M 735.5,922.5 C 735.5,922.167 735.5,921.833 735.5,921.5C 740.708,922.703 746.041,923.703 751.5,924.5C 751.5,925.5 751.5,926.5 751.5,927.5C 746.212,925.842 740.879,924.175 735.5,922.5 Z"/></g>
<g><path style="opacity:1" fill="#9e7b3b" d="M 753.5,927.5 C 755.698,927.12 757.365,927.787 758.5,929.5C 756.302,929.88 754.635,929.213 753.5,927.5 Z"/></g>
<g><path style="opacity:1" fill="#a4783f" d="M 758.5,929.5 C 761.916,929.528 764.916,930.528 767.5,932.5C 763.923,932.855 760.923,931.855 758.5,929.5 Z"/></g>
<g><path style="opacity:1" fill="#7d6a3b" d="M 767.5,933.5 C 769.527,933.338 771.527,933.505 773.5,934C 774.056,934.383 774.389,934.883 774.5,935.5C 771.99,935.073 769.657,934.407 767.5,933.5 Z"/></g>
<g><path style="opacity:1" fill="#383d30" d="M 783.5,939.5 C 787.229,940.013 790.896,940.846 794.5,942C 795.056,942.383 795.389,942.883 795.5,943.5C 791.213,942.768 787.213,941.435 783.5,939.5 Z"/></g>
<g><path style="opacity:1" fill="#786432" d="M 799.5,944.5 C 802.167,944.833 804.833,945.167 807.5,945.5C 808.5,945.833 809.167,946.5 809.5,947.5C 805.917,946.993 802.583,945.993 799.5,944.5 Z"/></g>
</svg>
